<?xml version="1.0" standalone="no"?>
<!DOCTYPE svg PUBLIC "-//W3C//DTD SVG 20010904//EN"
 "http://www.w3.org/TR/2001/REC-SVG-20010904/DTD/svg10.dtd">
<svg version="1.0" xmlns="http://www.w3.org/2000/svg"
 width="106.000000pt" height="106.000000pt" viewBox="0 0 106.000000 106.000000"
 preserveAspectRatio="xMidYMid meet">
<metadata>
Created by potrace 1.11, written by Peter Selinger 2001-2013
</metadata>
<g transform="translate(0.000000,106.000000) scale(0.100000,-0.100000)"
fill="#000000" stroke="none">
<path d="M397 1040 c-199 -63 -327 -267 -327 -520 0 -295 168 -501 421 -515
85 -4 137 7 222 50 38 19 72 35 75 35 4 0 12 -10 17 -22 25 -54 71 -48 92 13
7 19 12 30 12 25 1 -6 14 3 31 19 36 35 63 101 56 141 -2 16 -5 35 -5 43 -1 8
-9 3 -22 -13 -24 -31 -35 -33 -42 -7 -3 12 3 27 15 38 31 28 51 74 54 125 3
55 -6 66 -31 38 -22 -24 -31 -25 -39 -4 -4 10 5 29 23 50 34 38 52 95 49 147
-3 30 -5 33 -18 24 -8 -7 -20 -19 -27 -27 -10 -13 -14 -13 -26 4 -13 18 -11
23 19 53 36 36 56 92 50 142 -5 43 -10 46 -34 17 -22 -29 -32 -33 -32 -12 0 7
-6 19 -14 25 -7 6 -16 32 -19 57 -5 47 -18 64 -49 64 -17 0 -27 -9 -51 -43
-11 -16 -18 -14 -94 24 -72 36 -91 41 -165 44 -62 3 -98 -1 -141 -15z"/>
</g>
</svg>
